<?xml version="1.0" encoding="utf-8" standalone="no"?>
<!DOCTYPE svg PUBLIC "-//W3C//DTD SVG 1.1//EN"
  "http://www.w3.org/Graphics/SVG/1.1/DTD/svg11.dtd">
<svg xmlns:xlink="http://www.w3.org/1999/xlink" width="576pt" height="432pt" viewBox="0 0 576 432" xmlns="http://www.w3.org/2000/svg" version="1.1">
 <metadata>
  <rdf:RDF xmlns:dc="http://purl.org/dc/elements/1.1/" xmlns:cc="http://creativecommons.org/ns#" xmlns:rdf="http://www.w3.org/1999/02/22-rdf-syntax-ns#">
   <cc:Work>
    <dc:type rdf:resource="http://purl.org/dc/dcmitype/StillImage"/>
    <dc:date>2023-10-11T10:32:01.850559</dc:date>
    <dc:format>image/svg+xml</dc:format>
    <dc:creator>
     <cc:Agent>
      <dc:title>Matplotlib v3.7.3, https://matplotlib.org/</dc:title>
     </cc:Agent>
    </dc:creator>
   </cc:Work>
  </rdf:RDF>
 </metadata>
 <defs>
  <style type="text/css">*{stroke-linejoin: round; stroke-linecap: butt}</style>
 </defs>
 <g id="figure_1">
  <g id="patch_1">
   <path d="M 0 432 
L 576 432 
L 576 0 
L 0 0 
z
" style="fill: #ffffff"/>
  </g>
  <g id="axes_1">
   <g id="patch_2">
    <path d="M 47.72 179.44 
L 565.2 179.44 
L 565.2 21.72 
L 47.72 21.72 
z
" style="fill: #ffffff"/>
   </g>
   <g id="matplotlib.axis_1">
    <g id="xtick_1">
     <g id="line2d_1">
      <defs>
       <path id="m24d6a1e5a3" d="M 0 0 
L 0 3.5 
" style="stroke: #000000; stroke-width: 0.8"/>
      </defs>
      <g>
       <use xlink:href="#m24d6a1e5a3" x="71.241818" y="179.44" style="stroke: #000000; stroke-width: 0.8"/>
      </g>
     </g>
     <g id="text_1">
      <!-- 0 -->
      <g transform="translate(68.060568 194.038437) scale(0.1 -0.1)">
       <defs>
        <path id="DejaVuSans-30" d="M 2034 4250 
Q 1547 4250 1301 3770 
Q 1056 3291 1056 2328 
Q 1056 1369 1301 889 
Q 1547 409 2034 409 
Q 2525 409 2770 889 
Q 3016 1369 3016 2328 
Q 3016 3291 2770 3770 
Q 2525 4250 2034 4250 
z
M 2034 4750 
Q 2819 4750 3233 4129 
Q 3647 3509 3647 2328 
Q 3647 1150 3233 529 
Q 2819 -91 2034 -91 
Q 1250 -91 836 529 
Q 422 1150 422 2328 
Q 422 3509 836 4129 
Q 1250 4750 2034 4750 
z
" transform="scale(0.015625)"/>
       </defs>
       <use xlink:href="#DejaVuSans-30"/>
      </g>
     </g>
    </g>
    <g id="xtick_2">
     <g id="line2d_2">
      <g>
       <use xlink:href="#m24d6a1e5a3" x="130.046364" y="179.44" style="stroke: #000000; stroke-width: 0.8"/>
      </g>
     </g>
     <g id="text_2">
      <!-- 2500 -->
      <g transform="translate(117.321364 194.038437) scale(0.1 -0.1)">
       <defs>
        <path id="DejaVuSans-32" d="M 1228 531 
L 3431 531 
L 3431 0 
L 469 0 
L 469 531 
Q 828 903 1448 1529 
Q 2069 2156 2228 2338 
Q 2531 2678 2651 2914 
Q 2772 3150 2772 3378 
Q 2772 3750 2511 3984 
Q 2250 4219 1831 4219 
Q 1534 4219 1204 4116 
Q 875 4013 500 3803 
L 500 4441 
Q 881 4594 1212 4672 
Q 1544 4750 1819 4750 
Q 2544 4750 2975 4387 
Q 3406 4025 3406 3419 
Q 3406 3131 3298 2873 
Q 3191 2616 2906 2266 
Q 2828 2175 2409 1742 
Q 1991 1309 1228 531 
z
" transform="scale(0.015625)"/>
        <path id="DejaVuSans-35" d="M 691 4666 
L 3169 4666 
L 3169 4134 
L 1269 4134 
L 1269 2991 
Q 1406 3038 1543 3061 
Q 1681 3084 1819 3084 
Q 2600 3084 3056 2656 
Q 3513 2228 3513 1497 
Q 3513 744 3044 326 
Q 2575 -91 1722 -91 
Q 1428 -91 1123 -41 
Q 819 9 494 109 
L 494 744 
Q 775 591 1075 516 
Q 1375 441 1709 441 
Q 2250 441 2565 725 
Q 2881 1009 2881 1497 
Q 2881 1984 2565 2268 
Q 2250 2553 1709 2553 
Q 1456 2553 1204 2497 
Q 953 2441 691 2322 
L 691 4666 
z
" transform="scale(0.015625)"/>
       </defs>
       <use xlink:href="#DejaVuSans-32"/>
       <use xlink:href="#DejaVuSans-35" x="63.623047"/>
       <use xlink:href="#DejaVuSans-30" x="127.246094"/>
       <use xlink:href="#DejaVuSans-30" x="190.869141"/>
      </g>
     </g>
    </g>
    <g id="xtick_3">
     <g id="line2d_3">
      <g>
       <use xlink:href="#m24d6a1e5a3" x="188.850909" y="179.44" style="stroke: #000000; stroke-width: 0.8"/>
      </g>
     </g>
     <g id="text_3">
      <!-- 5000 -->
      <g transform="translate(176.125909 194.038437) scale(0.1 -0.1)">
       <use xlink:href="#DejaVuSans-35"/>
       <use xlink:href="#DejaVuSans-30" x="63.623047"/>
       <use xlink:href="#DejaVuSans-30" x="127.246094"/>
       <use xlink:href="#DejaVuSans-30" x="190.869141"/>
      </g>
     </g>
    </g>
    <g id="xtick_4">
     <g id="line2d_4">
      <g>
       <use xlink:href="#m24d6a1e5a3" x="247.655455" y="179.44" style="stroke: #000000; stroke-width: 0.8"/>
      </g>
     </g>
     <g id="text_4">
      <!-- 7500 -->
      <g transform="translate(234.930455 194.038437) scale(0.1 -0.1)">
       <defs>
        <path id="DejaVuSans-37" d="M 525 4666 
L 3525 4666 
L 3525 4397 
L 1831 0 
L 1172 0 
L 2766 4134 
L 525 4134 
L 525 4666 
z
" transform="scale(0.015625)"/>
       </defs>
       <use xlink:href="#DejaVuSans-37"/>
       <use xlink:href="#DejaVuSans-35" x="63.623047"/>
       <use xlink:href="#DejaVuSans-30" x="127.246094"/>
       <use xlink:href="#DejaVuSans-30" x="190.869141"/>
      </g>
     </g>
    </g>
    <g id="xtick_5">
     <g id="line2d_5">
      <g>
       <use xlink:href="#m24d6a1e5a3" x="306.46" y="179.44" style="stroke: #000000; stroke-width: 0.8"/>
      </g>
     </g>
     <g id="text_5">
      <!-- 10000 -->
      <g transform="translate(290.55375 194.038437) scale(0.1 -0.1)">
       <defs>
        <path id="DejaVuSans-31" d="M 794 531 
L 1825 531 
L 1825 4091 
L 703 3866 
L 703 4441 
L 1819 4666 
L 2450 4666 
L 2450 531 
L 3481 531 
L 3481 0 
L 794 0 
L 794 531 
z
" transform="scale(0.015625)"/>
       </defs>
       <use xlink:href="#DejaVuSans-31"/>
       <use xlink:href="#DejaVuSans-30" x="63.623047"/>
       <use xlink:href="#DejaVuSans-30" x="127.246094"/>
       <use xlink:href="#DejaVuSans-30" x="190.869141"/>
       <use xlink:href="#DejaVuSans-30" x="254.492188"/>
      </g>
     </g>
    </g>
    <g id="xtick_6">
     <g id="line2d_6">
      <g>
       <use xlink:href="#m24d6a1e5a3" x="365.264545" y="179.44" style="stroke: #000000; stroke-width: 0.8"/>
      </g>
     </g>
     <g id="text_6">
      <!-- 12500 -->
      <g transform="translate(349.358295 194.038437) scale(0.1 -0.1)">
       <use xlink:href="#DejaVuSans-31"/>
       <use xlink:href="#DejaVuSans-32" x="63.623047"/>
       <use xlink:href="#DejaVuSans-35" x="127.246094"/>
       <use xlink:href="#DejaVuSans-30" x="190.869141"/>
       <use xlink:href="#DejaVuSans-30" x="254.492188"/>
      </g>
     </g>
    </g>
    <g id="xtick_7">
     <g id="line2d_7">
      <g>
       <use xlink:href="#m24d6a1e5a3" x="424.069091" y="179.44" style="stroke: #000000; stroke-width: 0.8"/>
      </g>
     </g>
     <g id="text_7">
      <!-- 15000 -->
      <g transform="translate(408.162841 194.038437) scale(0.1 -0.1)">
       <use xlink:href="#DejaVuSans-31"/>
       <use xlink:href="#DejaVuSans-35" x="63.623047"/>
       <use xlink:href="#DejaVuSans-30" x="127.246094"/>
       <use xlink:href="#DejaVuSans-30" x="190.869141"/>
       <use xlink:href="#DejaVuSans-30" x="254.492188"/>
      </g>
     </g>
    </g>
    <g id="xtick_8">
     <g id="line2d_8">
      <g>
       <use xlink:href="#m24d6a1e5a3" x="482.873636" y="179.44" style="stroke: #000000; stroke-width: 0.8"/>
      </g>
     </g>
     <g id="text_8">
      <!-- 17500 -->
      <g transform="translate(466.967386 194.038437) scale(0.1 -0.1)">
       <use xlink:href="#DejaVuSans-31"/>
       <use xlink:href="#DejaVuSans-37" x="63.623047"/>
       <use xlink:href="#DejaVuSans-35" x="127.246094"/>
       <use xlink:href="#DejaVuSans-30" x="190.869141"/>
       <use xlink:href="#DejaVuSans-30" x="254.492188"/>
      </g>
     </g>
    </g>
    <g id="xtick_9">
     <g id="line2d_9">
      <g>
       <use xlink:href="#m24d6a1e5a3" x="541.678182" y="179.44" style="stroke: #000000; stroke-width: 0.8"/>
      </g>
     </g>
     <g id="text_9">
      <!-- 20000 -->
      <g transform="translate(525.771932 194.038437) scale(0.1 -0.1)">
       <use xlink:href="#DejaVuSans-32"/>
       <use xlink:href="#DejaVuSans-30" x="63.623047"/>
       <use xlink:href="#DejaVuSans-30" x="127.246094"/>
       <use xlink:href="#DejaVuSans-30" x="190.869141"/>
       <use xlink:href="#DejaVuSans-30" x="254.492188"/>
      </g>
     </g>
    </g>
    <g id="text_10">
     <!-- Time (ms) -->
     <g transform="translate(281.260781 207.716562) scale(0.1 -0.1)">
      <defs>
       <path id="DejaVuSans-54" d="M -19 4666 
L 3928 4666 
L 3928 4134 
L 2272 4134 
L 2272 0 
L 1638 0 
L 1638 4134 
L -19 4134 
L -19 4666 
z
" transform="scale(0.015625)"/>
       <path id="DejaVuSans-69" d="M 603 3500 
L 1178 3500 
L 1178 0 
L 603 0 
L 603 3500 
z
M 603 4863 
L 1178 4863 
L 1178 4134 
L 603 4134 
L 603 4863 
z
" transform="scale(0.015625)"/>
       <path id="DejaVuSans-6d" d="M 3328 2828 
Q 3544 3216 3844 3400 
Q 4144 3584 4550 3584 
Q 5097 3584 5394 3201 
Q 5691 2819 5691 2113 
L 5691 0 
L 5113 0 
L 5113 2094 
Q 5113 2597 4934 2840 
Q 4756 3084 4391 3084 
Q 3944 3084 3684 2787 
Q 3425 2491 3425 1978 
L 3425 0 
L 2847 0 
L 2847 2094 
Q 2847 2600 2669 2842 
Q 2491 3084 2119 3084 
Q 1678 3084 1418 2786 
Q 1159 2488 1159 1978 
L 1159 0 
L 581 0 
L 581 3500 
L 1159 3500 
L 1159 2956 
Q 1356 3278 1631 3431 
Q 1906 3584 2284 3584 
Q 2666 3584 2933 3390 
Q 3200 3197 3328 2828 
z
" transform="scale(0.015625)"/>
       <path id="DejaVuSans-65" d="M 3597 1894 
L 3597 1613 
L 953 1613 
Q 991 1019 1311 708 
Q 1631 397 2203 397 
Q 2534 397 2845 478 
Q 3156 559 3463 722 
L 3463 178 
Q 3153 47 2828 -22 
Q 2503 -91 2169 -91 
Q 1331 -91 842 396 
Q 353 884 353 1716 
Q 353 2575 817 3079 
Q 1281 3584 2069 3584 
Q 2775 3584 3186 3129 
Q 3597 2675 3597 1894 
z
M 3022 2063 
Q 3016 2534 2758 2815 
Q 2500 3097 2075 3097 
Q 1594 3097 1305 2825 
Q 1016 2553 972 2059 
L 3022 2063 
z
" transform="scale(0.015625)"/>
       <path id="DejaVuSans-20" transform="scale(0.015625)"/>
       <path id="DejaVuSans-28" d="M 1984 4856 
Q 1566 4138 1362 3434 
Q 1159 2731 1159 2009 
Q 1159 1288 1364 580 
Q 1569 -128 1984 -844 
L 1484 -844 
Q 1016 -109 783 600 
Q 550 1309 550 2009 
Q 550 2706 781 3412 
Q 1013 4119 1484 4856 
L 1984 4856 
z
" transform="scale(0.015625)"/>
       <path id="DejaVuSans-73" d="M 2834 3397 
L 2834 2853 
Q 2591 2978 2328 3040 
Q 2066 3103 1784 3103 
Q 1356 3103 1142 2972 
Q 928 2841 928 2578 
Q 928 2378 1081 2264 
Q 1234 2150 1697 2047 
L 1894 2003 
Q 2506 1872 2764 1633 
Q 3022 1394 3022 966 
Q 3022 478 2636 193 
Q 2250 -91 1575 -91 
Q 1294 -91 989 -36 
Q 684 19 347 128 
L 347 722 
Q 666 556 975 473 
Q 1284 391 1588 391 
Q 1994 391 2212 530 
Q 2431 669 2431 922 
Q 2431 1156 2273 1281 
Q 2116 1406 1581 1522 
L 1381 1569 
Q 847 1681 609 1914 
Q 372 2147 372 2553 
Q 372 3047 722 3315 
Q 1072 3584 1716 3584 
Q 2034 3584 2315 3537 
Q 2597 3491 2834 3397 
z
" transform="scale(0.015625)"/>
       <path id="DejaVuSans-29" d="M 513 4856 
L 1013 4856 
Q 1481 4119 1714 3412 
Q 1947 2706 1947 2009 
Q 1947 1309 1714 600 
Q 1481 -109 1013 -844 
L 513 -844 
Q 928 -128 1133 580 
Q 1338 1288 1338 2009 
Q 1338 2731 1133 3434 
Q 928 4138 513 4856 
z
" transform="scale(0.015625)"/>
      </defs>
      <use xlink:href="#DejaVuSans-54"/>
      <use xlink:href="#DejaVuSans-69" x="57.958984"/>
      <use xlink:href="#DejaVuSans-6d" x="85.742188"/>
      <use xlink:href="#DejaVuSans-65" x="183.154297"/>
      <use xlink:href="#DejaVuSans-20" x="244.677734"/>
      <use xlink:href="#DejaVuSans-28" x="276.464844"/>
      <use xlink:href="#DejaVuSans-6d" x="315.478516"/>
      <use xlink:href="#DejaVuSans-73" x="412.890625"/>
      <use xlink:href="#DejaVuSans-29" x="464.990234"/>
     </g>
    </g>
   </g>
   <g id="matplotlib.axis_2">
    <g id="ytick_1">
     <g id="line2d_10">
      <defs>
       <path id="m3ed0aae050" d="M 0 0 
L -3.5 0 
" style="stroke: #000000; stroke-width: 0.8"/>
      </defs>
      <g>
       <use xlink:href="#m3ed0aae050" x="47.72" y="172.270909" style="stroke: #000000; stroke-width: 0.8"/>
      </g>
     </g>
     <g id="text_11">
      <!-- 0.0 -->
      <g transform="translate(24.816875 176.070128) scale(0.1 -0.1)">
       <defs>
        <path id="DejaVuSans-2e" d="M 684 794 
L 1344 794 
L 1344 0 
L 684 0 
L 684 794 
z
" transform="scale(0.015625)"/>
       </defs>
       <use xlink:href="#DejaVuSans-30"/>
       <use xlink:href="#DejaVuSans-2e" x="63.623047"/>
       <use xlink:href="#DejaVuSans-30" x="95.410156"/>
      </g>
     </g>
    </g>
    <g id="ytick_2">
     <g id="line2d_11">
      <g>
       <use xlink:href="#m3ed0aae050" x="47.72" y="143.594692" style="stroke: #000000; stroke-width: 0.8"/>
      </g>
     </g>
     <g id="text_12">
      <!-- 0.5 -->
      <g transform="translate(24.816875 147.393911) scale(0.1 -0.1)">
       <use xlink:href="#DejaVuSans-30"/>
       <use xlink:href="#DejaVuSans-2e" x="63.623047"/>
       <use xlink:href="#DejaVuSans-35" x="95.410156"/>
      </g>
     </g>
    </g>
    <g id="ytick_3">
     <g id="line2d_12">
      <g>
       <use xlink:href="#m3ed0aae050" x="47.72" y="114.918475" style="stroke: #000000; stroke-width: 0.8"/>
      </g>
     </g>
     <g id="text_13">
      <!-- 1.0 -->
      <g transform="translate(24.816875 118.717694) scale(0.1 -0.1)">
       <use xlink:href="#DejaVuSans-31"/>
       <use xlink:href="#DejaVuSans-2e" x="63.623047"/>
       <use xlink:href="#DejaVuSans-30" x="95.410156"/>
      </g>
     </g>
    </g>
    <g id="ytick_4">
     <g id="line2d_13">
      <g>
       <use xlink:href="#m3ed0aae050" x="47.72" y="86.242259" style="stroke: #000000; stroke-width: 0.8"/>
      </g>
     </g>
     <g id="text_14">
      <!-- 1.5 -->
      <g transform="translate(24.816875 90.041477) scale(0.1 -0.1)">
       <use xlink:href="#DejaVuSans-31"/>
       <use xlink:href="#DejaVuSans-2e" x="63.623047"/>
       <use xlink:href="#DejaVuSans-35" x="95.410156"/>
      </g>
     </g>
    </g>
    <g id="ytick_5">
     <g id="line2d_14">
      <g>
       <use xlink:href="#m3ed0aae050" x="47.72" y="57.566042" style="stroke: #000000; stroke-width: 0.8"/>
      </g>
     </g>
     <g id="text_15">
      <!-- 2.0 -->
      <g transform="translate(24.816875 61.365261) scale(0.1 -0.1)">
       <use xlink:href="#DejaVuSans-32"/>
       <use xlink:href="#DejaVuSans-2e" x="63.623047"/>
       <use xlink:href="#DejaVuSans-30" x="95.410156"/>
      </g>
     </g>
    </g>
    <g id="ytick_6">
     <g id="line2d_15">
      <g>
       <use xlink:href="#m3ed0aae050" x="47.72" y="28.889825" style="stroke: #000000; stroke-width: 0.8"/>
      </g>
     </g>
     <g id="text_16">
      <!-- 2.5 -->
      <g transform="translate(24.816875 32.689044) scale(0.1 -0.1)">
       <use xlink:href="#DejaVuSans-32"/>
       <use xlink:href="#DejaVuSans-2e" x="63.623047"/>
       <use xlink:href="#DejaVuSans-35" x="95.410156"/>
      </g>
     </g>
    </g>
    <g id="text_17">
     <!-- Byte -->
     <g transform="translate(18.737187 112.006562) rotate(-90) scale(0.1 -0.1)">
      <defs>
       <path id="DejaVuSans-42" d="M 1259 2228 
L 1259 519 
L 2272 519 
Q 2781 519 3026 730 
Q 3272 941 3272 1375 
Q 3272 1813 3026 2020 
Q 2781 2228 2272 2228 
L 1259 2228 
z
M 1259 4147 
L 1259 2741 
L 2194 2741 
Q 2656 2741 2882 2914 
Q 3109 3088 3109 3444 
Q 3109 3797 2882 3972 
Q 2656 4147 2194 4147 
L 1259 4147 
z
M 628 4666 
L 2241 4666 
Q 2963 4666 3353 4366 
Q 3744 4066 3744 3513 
Q 3744 3084 3544 2831 
Q 3344 2578 2956 2516 
Q 3422 2416 3680 2098 
Q 3938 1781 3938 1306 
Q 3938 681 3513 340 
Q 3088 0 2303 0 
L 628 0 
L 628 4666 
z
" transform="scale(0.015625)"/>
       <path id="DejaVuSans-79" d="M 2059 -325 
Q 1816 -950 1584 -1140 
Q 1353 -1331 966 -1331 
L 506 -1331 
L 506 -850 
L 844 -850 
Q 1081 -850 1212 -737 
Q 1344 -625 1503 -206 
L 1606 56 
L 191 3500 
L 800 3500 
L 1894 763 
L 2988 3500 
L 3597 3500 
L 2059 -325 
z
" transform="scale(0.015625)"/>
       <path id="DejaVuSans-74" d="M 1172 4494 
L 1172 3500 
L 2356 3500 
L 2356 3053 
L 1172 3053 
L 1172 1153 
Q 1172 725 1289 603 
Q 1406 481 1766 481 
L 2356 481 
L 2356 0 
L 1766 0 
Q 1100 0 847 248 
Q 594 497 594 1153 
L 594 3053 
L 172 3053 
L 172 3500 
L 594 3500 
L 594 4494 
L 1172 4494 
z
" transform="scale(0.015625)"/>
      </defs>
      <use xlink:href="#DejaVuSans-42"/>
      <use xlink:href="#DejaVuSans-79" x="68.603516"/>
      <use xlink:href="#DejaVuSans-74" x="127.783203"/>
      <use xlink:href="#DejaVuSans-65" x="166.992188"/>
     </g>
    </g>
    <g id="text_18">
     <!-- 1e8 -->
     <g transform="translate(47.72 18.72) scale(0.1 -0.1)">
      <defs>
       <path id="DejaVuSans-38" d="M 2034 2216 
Q 1584 2216 1326 1975 
Q 1069 1734 1069 1313 
Q 1069 891 1326 650 
Q 1584 409 2034 409 
Q 2484 409 2743 651 
Q 3003 894 3003 1313 
Q 3003 1734 2745 1975 
Q 2488 2216 2034 2216 
z
M 1403 2484 
Q 997 2584 770 2862 
Q 544 3141 544 3541 
Q 544 4100 942 4425 
Q 1341 4750 2034 4750 
Q 2731 4750 3128 4425 
Q 3525 4100 3525 3541 
Q 3525 3141 3298 2862 
Q 3072 2584 2669 2484 
Q 3125 2378 3379 2068 
Q 3634 1759 3634 1313 
Q 3634 634 3220 271 
Q 2806 -91 2034 -91 
Q 1263 -91 848 271 
Q 434 634 434 1313 
Q 434 1759 690 2068 
Q 947 2378 1403 2484 
z
M 1172 3481 
Q 1172 3119 1398 2916 
Q 1625 2713 2034 2713 
Q 2441 2713 2670 2916 
Q 2900 3119 2900 3481 
Q 2900 3844 2670 4047 
Q 2441 4250 2034 4250 
Q 1625 4250 1398 4047 
Q 1172 3844 1172 3481 
z
" transform="scale(0.015625)"/>
      </defs>
      <use xlink:href="#DejaVuSans-31"/>
      <use xlink:href="#DejaVuSans-65" x="63.623047"/>
      <use xlink:href="#DejaVuSans-38" x="125.146484"/>
     </g>
    </g>
   </g>
   <g id="line2d_16">
    <path d="M 71.241818 172.256043 
L 81.426765 166.047941 
L 87.283698 162.477683 
L 97.468645 156.26958 
L 103.3491 152.684457 
L 113.557569 146.462314 
L 119.438024 142.87719 
L 129.646493 136.655048 
L 135.526947 133.069924 
L 145.735416 126.847782 
L 151.615871 123.262658 
L 161.82434 117.040516 
L 167.704795 113.455392 
L 177.913264 107.233249 
L 183.793718 103.648126 
L 194.002187 97.425983 
L 199.882642 93.84086 
L 210.091111 87.618717 
L 215.971565 84.033593 
L 226.180035 77.811451 
L 232.060489 74.226327 
L 242.268958 68.004185 
L 248.149413 64.419061 
L 258.357882 58.196919 
L 264.238336 54.611795 
L 274.446805 48.389652 
L 280.32726 44.804529 
L 290.535729 38.582386 
L 296.416184 34.997263 
L 306.859871 28.889091 
L 541.678182 28.889091 
L 541.678182 28.889091 
" clip-path="url(#p252b40be6c)" style="fill: none; stroke: #000000; stroke-width: 1.5; stroke-linecap: square"/>
   </g>
   <g id="line2d_17">
    <path d="M 71.241818 172.270909 
L 71.947473 172.161068 
L 74.299655 170.885917 
L 87.424829 163.385319 
L 94.693071 159.175834 
L 101.091005 155.454441 
L 110.946647 149.70057 
L 116.02736 146.972705 
L 140.537095 146.972705 
L 140.654704 132.378667 
L 141.689664 132.272129 
L 150.886695 126.911374 
L 156.743627 123.493903 
L 166.340529 117.89447 
L 172.197462 114.476999 
L 181.794364 108.877567 
L 187.651296 105.460096 
L 197.248198 99.860663 
L 202.964 96.522476 
L 212.513858 90.947819 
L 213.243035 90.52332 
L 223.004589 84.823956 
L 223.968984 84.264013 
L 233.895191 78.468022 
L 239.610993 75.129835 
L 249.513678 69.347883 
L 255.22948 66.009697 
L 265.132165 60.227745 
L 270.847967 56.889558 
L 281.032915 50.938303 
L 282.373658 50.157851 
L 292.676215 44.137222 
L 293.617087 43.588015 
L 303.543295 37.792024 
L 309.141487 34.519907 
L 318.785433 28.889091 
L 541.678182 28.889091 
L 541.678182 28.889091 
" clip-path="url(#p252b40be6c)" style="fill: none; stroke: #ffa500; stroke-width: 1.5; stroke-linecap: square"/>
   </g>
   <g id="line2d_18">
    <path d="M 71.241818 172.270909 
L 72.018038 172.165197 
L 74.699525 171.433472 
L 77.381013 171.433472 
L 77.498622 170.741389 
L 78.298364 170.741389 
L 78.415973 170.395347 
L 79.474455 170.395347 
L 79.592064 170.007186 
L 80.0625 170.007186 
L 80.180109 169.766856 
L 80.909285 169.671054 
L 81.215069 169.671054 
L 81.332678 169.428247 
L 90.294491 166.796183 
L 91.917496 166.39646 
L 92.011584 166.2924 
L 97.186384 164.773615 
L 106.289327 162.10191 
L 111.558215 160.553394 
L 120.661158 157.881688 
L 125.930045 156.333172 
L 135.103555 153.641646 
L 139.596222 152.336763 
L 139.925527 152.226096 
L 148.934384 149.580818 
L 151.709958 148.816884 
L 151.898133 148.711172 
L 160.859945 146.079108 
L 163.706085 145.296178 
L 163.89426 145.188815 
L 172.879595 142.550144 
L 175.561082 141.816767 
L 175.749256 141.707751 
L 184.8522 139.036046 
L 187.604253 138.276241 
L 187.815949 138.166399 
L 193.037793 136.632749 
L 202.164258 133.954436 
L 207.433145 132.405921 
L 216.606655 129.714394 
L 221.85202 128.173311 
L 230.978485 125.494998 
L 235.377065 124.216544 
L 235.706371 124.106702 
L 244.738749 121.454818 
L 247.490802 120.696664 
L 247.678976 120.591778 
L 256.664311 117.953107 
L 259.36932 117.214775 
L 259.557495 117.104108 
L 268.613395 114.445616 
L 271.412491 113.674249 
L 271.600665 113.569363 
L 276.822509 112.035713 
L 285.925453 109.364007 
L 291.170818 107.822924 
L 300.344327 105.131397 
L 305.613215 103.582882 
L 314.692636 100.917783 
L 316.174511 100.335541 
L 327.182722 93.893716 
L 332.122304 90.991591 
L 338.261498 87.454368 
L 338.402629 87.454368 
L 338.54376 87.222297 
L 344.000822 84.029464 
L 357.831651 75.902854 
L 363.429844 72.630737 
L 377.237151 64.518166 
L 382.200255 61.758092 
L 382.341385 61.523543 
L 394.807949 54.211246 
L 399.771053 51.295907 
L 403.981458 48.909954 
L 404.099067 48.909954 
L 404.240198 48.673753 
L 416.68324 41.375496 
L 421.622822 38.473371 
L 425.856749 36.061816 
L 425.99788 36.061816 
L 426.139011 35.823964 
L 431.572551 32.644345 
L 438.064573 28.889091 
L 541.678182 28.889091 
L 541.678182 28.889091 
" clip-path="url(#p252b40be6c)" style="fill: none; stroke: #0000ff; stroke-width: 1.5; stroke-linecap: square"/>
   </g>
   <g id="patch_3">
    <path d="M 47.72 179.44 
L 47.72 21.72 
" style="fill: none; stroke: #000000; stroke-width: 0.8; stroke-linejoin: miter; stroke-linecap: square"/>
   </g>
   <g id="patch_4">
    <path d="M 565.2 179.44 
L 565.2 21.72 
" style="fill: none; stroke: #000000; stroke-width: 0.8; stroke-linejoin: miter; stroke-linecap: square"/>
   </g>
   <g id="patch_5">
    <path d="M 47.72 179.44 
L 565.2 179.44 
" style="fill: none; stroke: #000000; stroke-width: 0.8; stroke-linejoin: miter; stroke-linecap: square"/>
   </g>
   <g id="patch_6">
    <path d="M 47.72 21.72 
L 565.2 21.72 
" style="fill: none; stroke: #000000; stroke-width: 0.8; stroke-linejoin: miter; stroke-linecap: square"/>
   </g>
   <g id="legend_1">
    <g id="patch_7">
     <path d="M 54.72 74.58875 
L 161.084063 74.58875 
Q 163.084063 74.58875 163.084063 72.58875 
L 163.084063 28.72 
Q 163.084063 26.72 161.084063 26.72 
L 54.72 26.72 
Q 52.72 26.72 52.72 28.72 
L 52.72 72.58875 
Q 52.72 74.58875 54.72 74.58875 
z
" style="fill: #ffffff; opacity: 0.8; stroke: #cccccc; stroke-linejoin: miter"/>
    </g>
    <g id="line2d_19">
     <path d="M 56.72 34.818438 
L 66.72 34.818438 
L 76.72 34.818438 
" style="fill: none; stroke: #000000; stroke-width: 1.5; stroke-linecap: square"/>
    </g>
    <g id="text_19">
     <!-- Tag 0_sent -->
     <g transform="translate(84.72 38.318438) scale(0.1 -0.1)">
      <defs>
       <path id="DejaVuSans-61" d="M 2194 1759 
Q 1497 1759 1228 1600 
Q 959 1441 959 1056 
Q 959 750 1161 570 
Q 1363 391 1709 391 
Q 2188 391 2477 730 
Q 2766 1069 2766 1631 
L 2766 1759 
L 2194 1759 
z
M 3341 1997 
L 3341 0 
L 2766 0 
L 2766 531 
Q 2569 213 2275 61 
Q 1981 -91 1556 -91 
Q 1019 -91 701 211 
Q 384 513 384 1019 
Q 384 1609 779 1909 
Q 1175 2209 1959 2209 
L 2766 2209 
L 2766 2266 
Q 2766 2663 2505 2880 
Q 2244 3097 1772 3097 
Q 1472 3097 1187 3025 
Q 903 2953 641 2809 
L 641 3341 
Q 956 3463 1253 3523 
Q 1550 3584 1831 3584 
Q 2591 3584 2966 3190 
Q 3341 2797 3341 1997 
z
" transform="scale(0.015625)"/>
       <path id="DejaVuSans-67" d="M 2906 1791 
Q 2906 2416 2648 2759 
Q 2391 3103 1925 3103 
Q 1463 3103 1205 2759 
Q 947 2416 947 1791 
Q 947 1169 1205 825 
Q 1463 481 1925 481 
Q 2391 481 2648 825 
Q 2906 1169 2906 1791 
z
M 3481 434 
Q 3481 -459 3084 -895 
Q 2688 -1331 1869 -1331 
Q 1566 -1331 1297 -1286 
Q 1028 -1241 775 -1147 
L 775 -588 
Q 1028 -725 1275 -790 
Q 1522 -856 1778 -856 
Q 2344 -856 2625 -561 
Q 2906 -266 2906 331 
L 2906 616 
Q 2728 306 2450 153 
Q 2172 0 1784 0 
Q 1141 0 747 490 
Q 353 981 353 1791 
Q 353 2603 747 3093 
Q 1141 3584 1784 3584 
Q 2172 3584 2450 3431 
Q 2728 3278 2906 2969 
L 2906 3500 
L 3481 3500 
L 3481 434 
z
" transform="scale(0.015625)"/>
       <path id="DejaVuSans-5f" d="M 3263 -1063 
L 3263 -1509 
L -63 -1509 
L -63 -1063 
L 3263 -1063 
z
" transform="scale(0.015625)"/>
       <path id="DejaVuSans-6e" d="M 3513 2113 
L 3513 0 
L 2938 0 
L 2938 2094 
Q 2938 2591 2744 2837 
Q 2550 3084 2163 3084 
Q 1697 3084 1428 2787 
Q 1159 2491 1159 1978 
L 1159 0 
L 581 0 
L 581 3500 
L 1159 3500 
L 1159 2956 
Q 1366 3272 1645 3428 
Q 1925 3584 2291 3584 
Q 2894 3584 3203 3211 
Q 3513 2838 3513 2113 
z
" transform="scale(0.015625)"/>
      </defs>
      <use xlink:href="#DejaVuSans-54"/>
      <use xlink:href="#DejaVuSans-61" x="44.583984"/>
      <use xlink:href="#DejaVuSans-67" x="105.863281"/>
      <use xlink:href="#DejaVuSans-20" x="169.339844"/>
      <use xlink:href="#DejaVuSans-30" x="201.126953"/>
      <use xlink:href="#DejaVuSans-5f" x="264.75"/>
      <use xlink:href="#DejaVuSans-73" x="314.75"/>
      <use xlink:href="#DejaVuSans-65" x="366.849609"/>
      <use xlink:href="#DejaVuSans-6e" x="428.373047"/>
      <use xlink:href="#DejaVuSans-74" x="491.751953"/>
     </g>
    </g>
    <g id="line2d_20">
     <path d="M 56.72 49.774688 
L 66.72 49.774688 
L 76.72 49.774688 
" style="fill: none; stroke: #ffa500; stroke-width: 1.5; stroke-linecap: square"/>
    </g>
    <g id="text_20">
     <!-- Tag 0_received -->
     <g transform="translate(84.72 53.274688) scale(0.1 -0.1)">
      <defs>
       <path id="DejaVuSans-72" d="M 2631 2963 
Q 2534 3019 2420 3045 
Q 2306 3072 2169 3072 
Q 1681 3072 1420 2755 
Q 1159 2438 1159 1844 
L 1159 0 
L 581 0 
L 581 3500 
L 1159 3500 
L 1159 2956 
Q 1341 3275 1631 3429 
Q 1922 3584 2338 3584 
Q 2397 3584 2469 3576 
Q 2541 3569 2628 3553 
L 2631 2963 
z
" transform="scale(0.015625)"/>
       <path id="DejaVuSans-63" d="M 3122 3366 
L 3122 2828 
Q 2878 2963 2633 3030 
Q 2388 3097 2138 3097 
Q 1578 3097 1268 2742 
Q 959 2388 959 1747 
Q 959 1106 1268 751 
Q 1578 397 2138 397 
Q 2388 397 2633 464 
Q 2878 531 3122 666 
L 3122 134 
Q 2881 22 2623 -34 
Q 2366 -91 2075 -91 
Q 1284 -91 818 406 
Q 353 903 353 1747 
Q 353 2603 823 3093 
Q 1294 3584 2113 3584 
Q 2378 3584 2631 3529 
Q 2884 3475 3122 3366 
z
" transform="scale(0.015625)"/>
       <path id="DejaVuSans-76" d="M 191 3500 
L 800 3500 
L 1894 563 
L 2988 3500 
L 3597 3500 
L 2284 0 
L 1503 0 
L 191 3500 
z
" transform="scale(0.015625)"/>
       <path id="DejaVuSans-64" d="M 2906 2969 
L 2906 4863 
L 3481 4863 
L 3481 0 
L 2906 0 
L 2906 525 
Q 2725 213 2448 61 
Q 2172 -91 1784 -91 
Q 1150 -91 751 415 
Q 353 922 353 1747 
Q 353 2572 751 3078 
Q 1150 3584 1784 3584 
Q 2172 3584 2448 3432 
Q 2725 3281 2906 2969 
z
M 947 1747 
Q 947 1113 1208 752 
Q 1469 391 1925 391 
Q 2381 391 2643 752 
Q 2906 1113 2906 1747 
Q 2906 2381 2643 2742 
Q 2381 3103 1925 3103 
Q 1469 3103 1208 2742 
Q 947 2381 947 1747 
z
" transform="scale(0.015625)"/>
      </defs>
      <use xlink:href="#DejaVuSans-54"/>
      <use xlink:href="#DejaVuSans-61" x="44.583984"/>
      <use xlink:href="#DejaVuSans-67" x="105.863281"/>
      <use xlink:href="#DejaVuSans-20" x="169.339844"/>
      <use xlink:href="#DejaVuSans-30" x="201.126953"/>
      <use xlink:href="#DejaVuSans-5f" x="264.75"/>
      <use xlink:href="#DejaVuSans-72" x="314.75"/>
      <use xlink:href="#DejaVuSans-65" x="353.613281"/>
      <use xlink:href="#DejaVuSans-63" x="415.136719"/>
      <use xlink:href="#DejaVuSans-65" x="470.117188"/>
      <use xlink:href="#DejaVuSans-69" x="531.640625"/>
      <use xlink:href="#DejaVuSans-76" x="559.423828"/>
      <use xlink:href="#DejaVuSans-65" x="618.603516"/>
      <use xlink:href="#DejaVuSans-64" x="680.126953"/>
     </g>
    </g>
    <g id="line2d_21">
     <path d="M 56.72 64.730938 
L 66.72 64.730938 
L 76.72 64.730938 
" style="fill: none; stroke: #0000ff; stroke-width: 1.5; stroke-linecap: square"/>
    </g>
    <g id="text_21">
     <!-- Tag 0_fq -->
     <g transform="translate(84.72 68.230938) scale(0.1 -0.1)">
      <defs>
       <path id="DejaVuSans-66" d="M 2375 4863 
L 2375 4384 
L 1825 4384 
Q 1516 4384 1395 4259 
Q 1275 4134 1275 3809 
L 1275 3500 
L 2222 3500 
L 2222 3053 
L 1275 3053 
L 1275 0 
L 697 0 
L 697 3053 
L 147 3053 
L 147 3500 
L 697 3500 
L 697 3744 
Q 697 4328 969 4595 
Q 1241 4863 1831 4863 
L 2375 4863 
z
" transform="scale(0.015625)"/>
       <path id="DejaVuSans-71" d="M 947 1747 
Q 947 1113 1208 752 
Q 1469 391 1925 391 
Q 2381 391 2643 752 
Q 2906 1113 2906 1747 
Q 2906 2381 2643 2742 
Q 2381 3103 1925 3103 
Q 1469 3103 1208 2742 
Q 947 2381 947 1747 
z
M 2906 525 
Q 2725 213 2448 61 
Q 2172 -91 1784 -91 
Q 1150 -91 751 415 
Q 353 922 353 1747 
Q 353 2572 751 3078 
Q 1150 3584 1784 3584 
Q 2172 3584 2448 3432 
Q 2725 3281 2906 2969 
L 2906 3500 
L 3481 3500 
L 3481 -1331 
L 2906 -1331 
L 2906 525 
z
" transform="scale(0.015625)"/>
      </defs>
      <use xlink:href="#DejaVuSans-54"/>
      <use xlink:href="#DejaVuSans-61" x="44.583984"/>
      <use xlink:href="#DejaVuSans-67" x="105.863281"/>
      <use xlink:href="#DejaVuSans-20" x="169.339844"/>
      <use xlink:href="#DejaVuSans-30" x="201.126953"/>
      <use xlink:href="#DejaVuSans-5f" x="264.75"/>
      <use xlink:href="#DejaVuSans-66" x="314.75"/>
      <use xlink:href="#DejaVuSans-71" x="349.955078"/>
     </g>
    </g>
   </g>
  </g>
  <g id="axes_2">
   <g id="patch_8">
    <path d="M 47.72 390.04 
L 565.2 390.04 
L 565.2 232.32 
L 47.72 232.32 
z
" style="fill: #ffffff"/>
   </g>
   <g id="matplotlib.axis_3">
    <g id="xtick_10">
     <g id="line2d_22">
      <g>
       <use xlink:href="#m24d6a1e5a3" x="71.241818" y="390.04" style="stroke: #000000; stroke-width: 0.8"/>
      </g>
     </g>
     <g id="text_22">
      <!-- 0 -->
      <g transform="translate(68.060568 404.638437) scale(0.1 -0.1)">
       <use xlink:href="#DejaVuSans-30"/>
      </g>
     </g>
    </g>
    <g id="xtick_11">
     <g id="line2d_23">
      <g>
       <use xlink:href="#m24d6a1e5a3" x="130.046364" y="390.04" style="stroke: #000000; stroke-width: 0.8"/>
      </g>
     </g>
     <g id="text_23">
      <!-- 2500 -->
      <g transform="translate(117.321364 404.638437) scale(0.1 -0.1)">
       <use xlink:href="#DejaVuSans-32"/>
       <use xlink:href="#DejaVuSans-35" x="63.623047"/>
       <use xlink:href="#DejaVuSans-30" x="127.246094"/>
       <use xlink:href="#DejaVuSans-30" x="190.869141"/>
      </g>
     </g>
    </g>
    <g id="xtick_12">
     <g id="line2d_24">
      <g>
       <use xlink:href="#m24d6a1e5a3" x="188.850909" y="390.04" style="stroke: #000000; stroke-width: 0.8"/>
      </g>
     </g>
     <g id="text_24">
      <!-- 5000 -->
      <g transform="translate(176.125909 404.638437) scale(0.1 -0.1)">
       <use xlink:href="#DejaVuSans-35"/>
       <use xlink:href="#DejaVuSans-30" x="63.623047"/>
       <use xlink:href="#DejaVuSans-30" x="127.246094"/>
       <use xlink:href="#DejaVuSans-30" x="190.869141"/>
      </g>
     </g>
    </g>
    <g id="xtick_13">
     <g id="line2d_25">
      <g>
       <use xlink:href="#m24d6a1e5a3" x="247.655455" y="390.04" style="stroke: #000000; stroke-width: 0.8"/>
      </g>
     </g>
     <g id="text_25">
      <!-- 7500 -->
      <g transform="translate(234.930455 404.638437) scale(0.1 -0.1)">
       <use xlink:href="#DejaVuSans-37"/>
       <use xlink:href="#DejaVuSans-35" x="63.623047"/>
       <use xlink:href="#DejaVuSans-30" x="127.246094"/>
       <use xlink:href="#DejaVuSans-30" x="190.869141"/>
      </g>
     </g>
    </g>
    <g id="xtick_14">
     <g id="line2d_26">
      <g>
       <use xlink:href="#m24d6a1e5a3" x="306.46" y="390.04" style="stroke: #000000; stroke-width: 0.8"/>
      </g>
     </g>
     <g id="text_26">
      <!-- 10000 -->
      <g transform="translate(290.55375 404.638437) scale(0.1 -0.1)">
       <use xlink:href="#DejaVuSans-31"/>
       <use xlink:href="#DejaVuSans-30" x="63.623047"/>
       <use xlink:href="#DejaVuSans-30" x="127.246094"/>
       <use xlink:href="#DejaVuSans-30" x="190.869141"/>
       <use xlink:href="#DejaVuSans-30" x="254.492188"/>
      </g>
     </g>
    </g>
    <g id="xtick_15">
     <g id="line2d_27">
      <g>
       <use xlink:href="#m24d6a1e5a3" x="365.264545" y="390.04" style="stroke: #000000; stroke-width: 0.8"/>
      </g>
     </g>
     <g id="text_27">
      <!-- 12500 -->
      <g transform="translate(349.358295 404.638437) scale(0.1 -0.1)">
       <use xlink:href="#DejaVuSans-31"/>
       <use xlink:href="#DejaVuSans-32" x="63.623047"/>
       <use xlink:href="#DejaVuSans-35" x="127.246094"/>
       <use xlink:href="#DejaVuSans-30" x="190.869141"/>
       <use xlink:href="#DejaVuSans-30" x="254.492188"/>
      </g>
     </g>
    </g>
    <g id="xtick_16">
     <g id="line2d_28">
      <g>
       <use xlink:href="#m24d6a1e5a3" x="424.069091" y="390.04" style="stroke: #000000; stroke-width: 0.8"/>
      </g>
     </g>
     <g id="text_28">
      <!-- 15000 -->
      <g transform="translate(408.162841 404.638437) scale(0.1 -0.1)">
       <use xlink:href="#DejaVuSans-31"/>
       <use xlink:href="#DejaVuSans-35" x="63.623047"/>
       <use xlink:href="#DejaVuSans-30" x="127.246094"/>
       <use xlink:href="#DejaVuSans-30" x="190.869141"/>
       <use xlink:href="#DejaVuSans-30" x="254.492188"/>
      </g>
     </g>
    </g>
    <g id="xtick_17">
     <g id="line2d_29">
      <g>
       <use xlink:href="#m24d6a1e5a3" x="482.873636" y="390.04" style="stroke: #000000; stroke-width: 0.8"/>
      </g>
     </g>
     <g id="text_29">
      <!-- 17500 -->
      <g transform="translate(466.967386 404.638437) scale(0.1 -0.1)">
       <use xlink:href="#DejaVuSans-31"/>
       <use xlink:href="#DejaVuSans-37" x="63.623047"/>
       <use xlink:href="#DejaVuSans-35" x="127.246094"/>
       <use xlink:href="#DejaVuSans-30" x="190.869141"/>
       <use xlink:href="#DejaVuSans-30" x="254.492188"/>
      </g>
     </g>
    </g>
    <g id="xtick_18">
     <g id="line2d_30">
      <g>
       <use xlink:href="#m24d6a1e5a3" x="541.678182" y="390.04" style="stroke: #000000; stroke-width: 0.8"/>
      </g>
     </g>
     <g id="text_30">
      <!-- 20000 -->
      <g transform="translate(525.771932 404.638437) scale(0.1 -0.1)">
       <use xlink:href="#DejaVuSans-32"/>
       <use xlink:href="#DejaVuSans-30" x="63.623047"/>
       <use xlink:href="#DejaVuSans-30" x="127.246094"/>
       <use xlink:href="#DejaVuSans-30" x="190.869141"/>
       <use xlink:href="#DejaVuSans-30" x="254.492188"/>
      </g>
     </g>
    </g>
    <g id="text_31">
     <!-- Time (ms) -->
     <g transform="translate(281.260781 418.316562) scale(0.1 -0.1)">
      <use xlink:href="#DejaVuSans-54"/>
      <use xlink:href="#DejaVuSans-69" x="57.958984"/>
      <use xlink:href="#DejaVuSans-6d" x="85.742188"/>
      <use xlink:href="#DejaVuSans-65" x="183.154297"/>
      <use xlink:href="#DejaVuSans-20" x="244.677734"/>
      <use xlink:href="#DejaVuSans-28" x="276.464844"/>
      <use xlink:href="#DejaVuSans-6d" x="315.478516"/>
      <use xlink:href="#DejaVuSans-73" x="412.890625"/>
      <use xlink:href="#DejaVuSans-29" x="464.990234"/>
     </g>
    </g>
   </g>
   <g id="matplotlib.axis_4">
    <g id="ytick_7">
     <g id="line2d_31">
      <g>
       <use xlink:href="#m3ed0aae050" x="47.72" y="382.870909" style="stroke: #000000; stroke-width: 0.8"/>
      </g>
     </g>
     <g id="text_32">
      <!-- 0.0 -->
      <g transform="translate(24.816875 386.670128) scale(0.1 -0.1)">
       <use xlink:href="#DejaVuSans-30"/>
       <use xlink:href="#DejaVuSans-2e" x="63.623047"/>
       <use xlink:href="#DejaVuSans-30" x="95.410156"/>
      </g>
     </g>
    </g>
    <g id="ytick_8">
     <g id="line2d_32">
      <g>
       <use xlink:href="#m3ed0aae050" x="47.72" y="359.929936" style="stroke: #000000; stroke-width: 0.8"/>
      </g>
     </g>
     <g id="text_33">
      <!-- 0.2 -->
      <g transform="translate(24.816875 363.729154) scale(0.1 -0.1)">
       <use xlink:href="#DejaVuSans-30"/>
       <use xlink:href="#DejaVuSans-2e" x="63.623047"/>
       <use xlink:href="#DejaVuSans-32" x="95.410156"/>
      </g>
     </g>
    </g>
    <g id="ytick_9">
     <g id="line2d_33">
      <g>
       <use xlink:href="#m3ed0aae050" x="47.72" y="336.988962" style="stroke: #000000; stroke-width: 0.8"/>
      </g>
     </g>
     <g id="text_34">
      <!-- 0.4 -->
      <g transform="translate(24.816875 340.788181) scale(0.1 -0.1)">
       <defs>
        <path id="DejaVuSans-34" d="M 2419 4116 
L 825 1625 
L 2419 1625 
L 2419 4116 
z
M 2253 4666 
L 3047 4666 
L 3047 1625 
L 3713 1625 
L 3713 1100 
L 3047 1100 
L 3047 0 
L 2419 0 
L 2419 1100 
L 313 1100 
L 313 1709 
L 2253 4666 
z
" transform="scale(0.015625)"/>
       </defs>
       <use xlink:href="#DejaVuSans-30"/>
       <use xlink:href="#DejaVuSans-2e" x="63.623047"/>
       <use xlink:href="#DejaVuSans-34" x="95.410156"/>
      </g>
     </g>
    </g>
    <g id="ytick_10">
     <g id="line2d_34">
      <g>
       <use xlink:href="#m3ed0aae050" x="47.72" y="314.047989" style="stroke: #000000; stroke-width: 0.8"/>
      </g>
     </g>
     <g id="text_35">
      <!-- 0.6 -->
      <g transform="translate(24.816875 317.847207) scale(0.1 -0.1)">
       <defs>
        <path id="DejaVuSans-36" d="M 2113 2584 
Q 1688 2584 1439 2293 
Q 1191 2003 1191 1497 
Q 1191 994 1439 701 
Q 1688 409 2113 409 
Q 2538 409 2786 701 
Q 3034 994 3034 1497 
Q 3034 2003 2786 2293 
Q 2538 2584 2113 2584 
z
M 3366 4563 
L 3366 3988 
Q 3128 4100 2886 4159 
Q 2644 4219 2406 4219 
Q 1781 4219 1451 3797 
Q 1122 3375 1075 2522 
Q 1259 2794 1537 2939 
Q 1816 3084 2150 3084 
Q 2853 3084 3261 2657 
Q 3669 2231 3669 1497 
Q 3669 778 3244 343 
Q 2819 -91 2113 -91 
Q 1303 -91 875 529 
Q 447 1150 447 2328 
Q 447 3434 972 4092 
Q 1497 4750 2381 4750 
Q 2619 4750 2861 4703 
Q 3103 4656 3366 4563 
z
" transform="scale(0.015625)"/>
       </defs>
       <use xlink:href="#DejaVuSans-30"/>
       <use xlink:href="#DejaVuSans-2e" x="63.623047"/>
       <use xlink:href="#DejaVuSans-36" x="95.410156"/>
      </g>
     </g>
    </g>
    <g id="ytick_11">
     <g id="line2d_35">
      <g>
       <use xlink:href="#m3ed0aae050" x="47.72" y="291.107015" style="stroke: #000000; stroke-width: 0.8"/>
      </g>
     </g>
     <g id="text_36">
      <!-- 0.8 -->
      <g transform="translate(24.816875 294.906234) scale(0.1 -0.1)">
       <use xlink:href="#DejaVuSans-30"/>
       <use xlink:href="#DejaVuSans-2e" x="63.623047"/>
       <use xlink:href="#DejaVuSans-38" x="95.410156"/>
      </g>
     </g>
    </g>
    <g id="ytick_12">
     <g id="line2d_36">
      <g>
       <use xlink:href="#m3ed0aae050" x="47.72" y="268.166042" style="stroke: #000000; stroke-width: 0.8"/>
      </g>
     </g>
     <g id="text_37">
      <!-- 1.0 -->
      <g transform="translate(24.816875 271.965261) scale(0.1 -0.1)">
       <use xlink:href="#DejaVuSans-31"/>
       <use xlink:href="#DejaVuSans-2e" x="63.623047"/>
       <use xlink:href="#DejaVuSans-30" x="95.410156"/>
      </g>
     </g>
    </g>
    <g id="ytick_13">
     <g id="line2d_37">
      <g>
       <use xlink:href="#m3ed0aae050" x="47.72" y="245.225068" style="stroke: #000000; stroke-width: 0.8"/>
      </g>
     </g>
     <g id="text_38">
      <!-- 1.2 -->
      <g transform="translate(24.816875 249.024287) scale(0.1 -0.1)">
       <use xlink:href="#DejaVuSans-31"/>
       <use xlink:href="#DejaVuSans-2e" x="63.623047"/>
       <use xlink:href="#DejaVuSans-32" x="95.410156"/>
      </g>
     </g>
    </g>
    <g id="text_39">
     <!-- Byte -->
     <g transform="translate(18.737187 322.606562) rotate(-90) scale(0.1 -0.1)">
      <use xlink:href="#DejaVuSans-42"/>
      <use xlink:href="#DejaVuSans-79" x="68.603516"/>
      <use xlink:href="#DejaVuSans-74" x="127.783203"/>
      <use xlink:href="#DejaVuSans-65" x="166.992188"/>
     </g>
    </g>
    <g id="text_40">
     <!-- 1e8 -->
     <g transform="translate(47.72 229.32) scale(0.1 -0.1)">
      <use xlink:href="#DejaVuSans-31"/>
      <use xlink:href="#DejaVuSans-65" x="63.623047"/>
      <use xlink:href="#DejaVuSans-38" x="125.146484"/>
     </g>
    </g>
   </g>
   <g id="line2d_38">
    <path d="M 71.241818 382.856043 
L 77.098751 379.28496 
L 79.780238 377.651379 
L 85.637171 374.080295 
L 88.318658 372.446714 
L 94.175591 368.875631 
L 96.857078 367.24205 
L 102.714011 363.670966 
L 105.395498 362.037385 
L 111.252431 358.466302 
L 113.933918 356.832721 
L 119.814373 353.246771 
L 122.49586 351.61319 
L 128.352793 348.042107 
L 131.03428 346.408526 
L 136.891213 342.837442 
L 139.5727 341.203861 
L 145.429633 337.632778 
L 148.11112 335.999197 
L 153.968053 332.428113 
L 156.64954 330.794532 
L 162.506473 327.223449 
L 165.18796 325.589868 
L 171.044893 322.018784 
L 173.72638 320.385203 
L 179.583313 316.81412 
L 182.2648 315.180539 
L 188.145255 311.594589 
L 190.826742 309.961008 
L 196.683675 306.389925 
L 199.365162 304.756344 
L 205.222095 301.18526 
L 207.903582 299.551679 
L 213.760515 295.980596 
L 216.442002 294.347015 
L 222.298935 290.775931 
L 224.980422 289.14235 
L 230.837355 285.571267 
L 233.518842 283.937686 
L 239.375775 280.366602 
L 242.057262 278.733021 
L 247.937716 275.147072 
L 250.619204 273.513491 
L 256.476136 269.942407 
L 259.157624 268.308826 
L 265.014556 264.737743 
L 267.696044 263.104162 
L 273.552976 259.533078 
L 276.234464 257.899497 
L 282.091396 254.328414 
L 284.772884 252.694833 
L 290.629816 249.123749 
L 293.311304 247.490168 
L 299.168236 243.919085 
L 301.849724 242.285504 
L 306.46 239.489091 
L 541.678182 239.489091 
L 541.678182 239.489091 
" clip-path="url(#pc3ce5dc21d)" style="fill: none; stroke: #000000; stroke-width: 1.5; stroke-linecap: square"/>
   </g>
   <g id="line2d_39">
    <path d="M 71.241818 382.870909 
L 71.970995 382.763545 
L 72.159169 382.707386 
L 73.546956 382.600022 
L 73.946827 382.548818 
L 76.487184 382.439802 
L 77.522144 382.405116 
L 80.203631 382.294448 
L 82.602856 382.236637 
L 87.730613 382.12597 
L 90.200404 382.063203 
L 100.009002 381.952536 
L 101.890747 381.931063 
L 121.4609 381.828655 
L 121.649075 381.808834 
L 140.960487 381.698167 
L 141.64262 381.665132 
L 153.850444 381.55942 
L 154.273836 381.552813 
L 167.375489 381.447101 
L 167.798882 381.440494 
L 181.22984 381.334782 
L 181.653233 381.328175 
L 195.413496 381.222463 
L 195.836889 381.215856 
L 209.926458 381.108492 
L 210.46746 381.103536 
L 224.768725 380.997824 
L 225.192118 380.991217 
L 239.987342 380.885505 
L 240.410735 380.878898 
L 255.558785 380.773186 
L 255.982178 380.766579 
L 271.483056 380.660867 
L 271.906449 380.65426 
L 287.807198 380.548548 
L 288.230591 380.541941 
L 304.507689 380.436229 
L 304.931082 380.429622 
L 319.067695 380.322259 
L 319.749827 380.289224 
L 320.643656 380.188467 
L 320.996484 380.129004 
L 321.490442 380.039809 
L 321.678616 379.972088 
L 322.078487 379.876286 
L 322.384271 379.773878 
L 322.784142 379.671469 
L 322.995838 379.585578 
L 323.348665 379.474911 
L 323.583884 379.365895 
L 323.79558 379.278353 
L 324.007276 379.182551 
L 324.218973 379.095008 
L 324.454191 378.984341 
L 324.642365 378.896798 
L 324.901105 378.771265 
L 328.523465 376.353103 
L 329.158555 375.804722 
L 329.276164 375.703965 
L 330.311124 374.754209 
L 330.428733 374.640238 
L 333.909962 370.814785 
L 343.130515 359.979305 
L 346.376525 356.165414 
L 355.573556 345.358013 
L 358.819567 341.544122 
L 368.016598 330.736721 
L 371.262609 326.92283 
L 380.483162 316.08735 
L 383.729173 312.273459 
L 392.926204 301.466058 
L 396.172215 297.652167 
L 405.369245 286.844766 
L 408.615256 283.030875 
L 417.835809 272.195394 
L 421.105342 268.355075 
L 430.372938 257.463435 
L 433.618949 253.649544 
L 442.81598 242.842144 
L 445.944382 239.489091 
L 541.678182 239.489091 
L 541.678182 239.489091 
" clip-path="url(#pc3ce5dc21d)" style="fill: none; stroke: #ffa500; stroke-width: 1.5; stroke-linecap: square"/>
   </g>
   <g id="line2d_40">
    <path d="M 71.241818 382.870909 
L 71.806342 382.770152 
L 74.323176 381.310005 
L 79.28628 378.394666 
L 82.250029 376.65207 
L 87.236655 373.723517 
L 90.176882 371.995787 
L 94.975333 369.172946 
L 97.962604 367.415484 
L 102.949229 364.486931 
L 105.983544 362.699737 
L 110.923125 359.797612 
L 113.863353 358.069882 
L 118.685325 355.233827 
L 121.649075 353.49123 
L 126.6357 350.562677 
L 129.717058 348.745752 
L 134.703684 345.817199 
L 137.667433 344.074603 
L 142.489405 341.238548 
L 145.453155 339.495952 
L 150.43978 336.567399 
L 153.474095 334.780205 
L 158.413676 331.87808 
L 161.353904 330.15035 
L 166.152355 327.327509 
L 169.092582 325.599778 
L 174.055685 322.684439 
L 177.137044 320.867514 
L 182.123669 317.938961 
L 185.063896 316.211231 
L 189.862347 313.38839 
L 192.826096 311.645794 
L 197.7892 308.730455 
L 200.823515 306.943261 
L 205.786618 304.027922 
L 208.726845 302.300192 
L 213.431209 299.530207 
L 216.371436 297.802476 
L 221.33454 294.887137 
L 224.392376 293.085078 
L 229.379002 290.156525 
L 232.342751 288.413929 
L 237.141202 285.591088 
L 240.104951 283.848491 
L 245.115098 280.906724 
L 248.149413 279.119531 
L 253.088995 276.217406 
L 256.029222 274.489675 
L 260.757107 271.706476 
L 263.697335 269.978746 
L 268.660438 267.063407 
L 271.647709 265.305945 
L 276.516725 262.443462 
L 279.480475 260.700866 
L 284.302447 257.864811 
L 287.242675 256.13708 
L 292.182256 253.234955 
L 295.122484 251.507225 
L 299.850369 248.724026 
L 302.790596 246.996295 
L 307.612569 244.16024 
L 308.78866 243.468157 
L 313.775285 240.539604 
L 315.633509 239.489091 
L 541.678182 239.489091 
L 541.678182 239.489091 
" clip-path="url(#pc3ce5dc21d)" style="fill: none; stroke: #0000ff; stroke-width: 1.5; stroke-linecap: square"/>
   </g>
   <g id="patch_9">
    <path d="M 47.72 390.04 
L 47.72 232.32 
" style="fill: none; stroke: #000000; stroke-width: 0.8; stroke-linejoin: miter; stroke-linecap: square"/>
   </g>
   <g id="patch_10">
    <path d="M 565.2 390.04 
L 565.2 232.32 
" style="fill: none; stroke: #000000; stroke-width: 0.8; stroke-linejoin: miter; stroke-linecap: square"/>
   </g>
   <g id="patch_11">
    <path d="M 47.72 390.04 
L 565.2 390.04 
" style="fill: none; stroke: #000000; stroke-width: 0.8; stroke-linejoin: miter; stroke-linecap: square"/>
   </g>
   <g id="patch_12">
    <path d="M 47.72 232.32 
L 565.2 232.32 
" style="fill: none; stroke: #000000; stroke-width: 0.8; stroke-linejoin: miter; stroke-linecap: square"/>
   </g>
   <g id="legend_2">
    <g id="patch_13">
     <path d="M 54.72 285.18875 
L 161.084063 285.18875 
Q 163.084063 285.18875 163.084063 283.18875 
L 163.084063 239.32 
Q 163.084063 237.32 161.084063 237.32 
L 54.72 237.32 
Q 52.72 237.32 52.72 239.32 
L 52.72 283.18875 
Q 52.72 285.18875 54.72 285.18875 
z
" style="fill: #ffffff; opacity: 0.8; stroke: #cccccc; stroke-linejoin: miter"/>
    </g>
    <g id="line2d_41">
     <path d="M 56.72 245.418437 
L 66.72 245.418437 
L 76.72 245.418437 
" style="fill: none; stroke: #000000; stroke-width: 1.5; stroke-linecap: square"/>
    </g>
    <g id="text_41">
     <!-- Tag 1_sent -->
     <g transform="translate(84.72 248.918437) scale(0.1 -0.1)">
      <use xlink:href="#DejaVuSans-54"/>
      <use xlink:href="#DejaVuSans-61" x="44.583984"/>
      <use xlink:href="#DejaVuSans-67" x="105.863281"/>
      <use xlink:href="#DejaVuSans-20" x="169.339844"/>
      <use xlink:href="#DejaVuSans-31" x="201.126953"/>
      <use xlink:href="#DejaVuSans-5f" x="264.75"/>
      <use xlink:href="#DejaVuSans-73" x="314.75"/>
      <use xlink:href="#DejaVuSans-65" x="366.849609"/>
      <use xlink:href="#DejaVuSans-6e" x="428.373047"/>
      <use xlink:href="#DejaVuSans-74" x="491.751953"/>
     </g>
    </g>
    <g id="line2d_42">
     <path d="M 56.72 260.374687 
L 66.72 260.374687 
L 76.72 260.374687 
" style="fill: none; stroke: #ffa500; stroke-width: 1.5; stroke-linecap: square"/>
    </g>
    <g id="text_42">
     <!-- Tag 1_received -->
     <g transform="translate(84.72 263.874687) scale(0.1 -0.1)">
      <use xlink:href="#DejaVuSans-54"/>
      <use xlink:href="#DejaVuSans-61" x="44.583984"/>
      <use xlink:href="#DejaVuSans-67" x="105.863281"/>
      <use xlink:href="#DejaVuSans-20" x="169.339844"/>
      <use xlink:href="#DejaVuSans-31" x="201.126953"/>
      <use xlink:href="#DejaVuSans-5f" x="264.75"/>
      <use xlink:href="#DejaVuSans-72" x="314.75"/>
      <use xlink:href="#DejaVuSans-65" x="353.613281"/>
      <use xlink:href="#DejaVuSans-63" x="415.136719"/>
      <use xlink:href="#DejaVuSans-65" x="470.117188"/>
      <use xlink:href="#DejaVuSans-69" x="531.640625"/>
      <use xlink:href="#DejaVuSans-76" x="559.423828"/>
      <use xlink:href="#DejaVuSans-65" x="618.603516"/>
      <use xlink:href="#DejaVuSans-64" x="680.126953"/>
     </g>
    </g>
    <g id="line2d_43">
     <path d="M 56.72 275.330938 
L 66.72 275.330938 
L 76.72 275.330938 
" style="fill: none; stroke: #0000ff; stroke-width: 1.5; stroke-linecap: square"/>
    </g>
    <g id="text_43">
     <!-- Tag 1_fq -->
     <g transform="translate(84.72 278.830938) scale(0.1 -0.1)">
      <use xlink:href="#DejaVuSans-54"/>
      <use xlink:href="#DejaVuSans-61" x="44.583984"/>
      <use xlink:href="#DejaVuSans-67" x="105.863281"/>
      <use xlink:href="#DejaVuSans-20" x="169.339844"/>
      <use xlink:href="#DejaVuSans-31" x="201.126953"/>
      <use xlink:href="#DejaVuSans-5f" x="264.75"/>
      <use xlink:href="#DejaVuSans-66" x="314.75"/>
      <use xlink:href="#DejaVuSans-71" x="349.955078"/>
     </g>
    </g>
   </g>
  </g>
 </g>
 <defs>
  <clipPath id="p252b40be6c">
   <rect x="47.72" y="21.72" width="517.48" height="157.72"/>
  </clipPath>
  <clipPath id="pc3ce5dc21d">
   <rect x="47.72" y="232.32" width="517.48" height="157.72"/>
  </clipPath>
 </defs>
</svg>
